<?xml version="1.0" standalone="no"?>
<!DOCTYPE svg PUBLIC "-//W3C//DTD SVG 20010904//EN"
 "http://www.w3.org/TR/2001/REC-SVG-20010904/DTD/svg10.dtd">
<svg version="1.0" xmlns="http://www.w3.org/2000/svg"
 width="700.000000pt" height="700.000000pt" viewBox="0 0 700.000000 700.000000"
 preserveAspectRatio="xMidYMid meet">
<metadata>
Created by potrace 1.11, written by Peter Selinger 2001-2013
</metadata>
<g transform="translate(0.000000,700.000000) scale(0.100000,-0.100000)"
fill="#000000" stroke="none">
<path d="M3412 6975 c-39 -20 -59 -39 -79 -73 l-27 -46 0 -386 c0 -379 0 -386
22 -431 34 -70 89 -104 172 -104 67 0 103 15 143 60 49 54 50 67 51 458 1 391
-2 428 -46 478 -32 36 -82 60 -137 65 -36 4 -57 0 -99 -21z"/>
<path d="M1230 6070 c-94 -17 -160 -94 -160 -187 0 -34 7 -68 19 -91 24 -47
524 -543 571 -567 51 -26 130 -22 184 9 83 48 116 169 72 254 -16 30 -557 572
-572 572 -5 0 -25 4 -44 8 -19 5 -51 5 -70 2z"/>
<path d="M5650 6051 c-19 -11 -155 -140 -302 -288 -235 -236 -268 -273 -278
-313 -40 -150 97 -281 247 -237 30 9 97 69 306 276 171 170 274 280 287 306
41 84 13 189 -63 242 -52 36 -145 43 -197 14z"/>
<path d="M3468 5365 c-2 -1 -43 -5 -93 -9 -49 -3 -101 -8 -115 -10 -14 -3 -54
-10 -90 -16 -391 -69 -787 -312 -1034 -635 -167 -220 -290 -496 -331 -748 -3
-17 -7 -43 -10 -57 -33 -192 -19 -467 36 -680 75 -291 197 -507 438 -780 217
-245 341 -488 401 -785 30 -147 51 -187 133 -249 67 -52 103 -54 722 -52 569
2 570 2 620 24 54 25 105 69 135 118 11 17 34 93 51 170 71 320 179 525 418
798 226 257 349 479 420 761 22 87 25 103 47 255 11 74 3 346 -12 424 -2 12
-7 37 -10 56 -91 526 -457 1008 -944 1241 -199 95 -419 154 -622 165 -57 3
-115 7 -130 9 -15 2 -28 2 -30 0z m118 -508 c36 -19 82 -69 96 -106 16 -42 11
-108 -11 -154 -36 -74 -90 -101 -221 -112 -105 -8 -135 -13 -220 -41 -82 -26
-204 -92 -260 -139 -207 -176 -306 -375 -325 -651 -9 -131 -74 -205 -184 -210
-86 -4 -155 38 -189 116 -19 44 -18 159 3 282 84 479 440 870 907 994 35 9 77
18 93 20 17 2 50 8 75 12 76 13 201 8 236 -11z"/>
<path d="M291 3827 c-24 -5 -50 -14 -56 -20 -7 -7 -24 -22 -37 -33 -14 -12
-33 -42 -43 -67 -43 -112 32 -237 152 -255 83 -12 734 -7 774 7 43 14 91 59
113 105 40 84 5 189 -78 241 l-48 29 -367 1 c-201 0 -386 -3 -410 -8z"/>
<path d="M5942 3829 c-84 -17 -152 -101 -152 -188 0 -48 28 -109 67 -145 52
-48 80 -51 483 -50 l375 1 40 25 c50 32 70 54 89 98 27 67 5 167 -48 212 -60
52 -55 52 -451 53 -204 0 -385 -2 -403 -6z"/>
<path d="M1670 2064 c-49 -21 -557 -527 -581 -579 -77 -164 93 -334 256 -255
26 12 137 117 306 287 205 208 268 276 276 305 25 86 -10 183 -81 228 -46 28
-129 34 -176 14z"/>
<path d="M5168 2056 c-83 -43 -122 -136 -98 -227 10 -38 46 -79 278 -313 173
-174 281 -275 307 -287 158 -73 326 88 260 249 -17 40 -504 537 -562 573 -50
31 -132 33 -185 5z"/>
<path d="M2875 1078 c-58 -8 -121 -49 -150 -98 -17 -30 -20 -54 -22 -185 -3
-174 9 -234 63 -308 40 -55 109 -103 172 -119 23 -6 42 -12 42 -15 0 -2 12
-50 26 -106 39 -148 88 -211 185 -237 22 -6 156 -10 321 -10 258 1 287 3 327
21 86 38 117 85 157 237 15 53 27 98 29 100 1 2 15 5 31 8 48 9 125 56 160
100 65 79 78 122 81 284 3 177 -11 235 -66 279 -68 53 -67 53 -710 54 -329 1
-620 -1 -646 -5z"/>
</g>
</svg>
